<mxfile host="app.diagrams.net" modified="2022-02-21T03:35:52.237Z" agent="5.0 (Windows)" etag="TwkIkH2vA9G799cg7O0q" version="16.6.1" type="github">
  <diagram id="Lrg5kurUtaj6RJSmO0BA" name="Page-1">
    <mxGraphModel dx="1185" dy="727" grid="1" gridSize="10" guides="1" tooltips="1" connect="1" arrows="1" fold="1" page="1" pageScale="1" pageWidth="827" pageHeight="1169" math="0" shadow="0">
      <root>
        <mxCell id="0" />
        <mxCell id="1" parent="0" />
        <mxCell id="m0ZOB3Q7q5n8RTu2BzLh-2" value="启动go程" style="ellipse;whiteSpace=wrap;html=1;" vertex="1" parent="1">
          <mxGeometry x="30" y="505" width="120" height="80" as="geometry" />
        </mxCell>
        <mxCell id="m0ZOB3Q7q5n8RTu2BzLh-81" value="" style="endArrow=none;dashed=1;html=1;dashPattern=1 3;strokeWidth=2;rounded=0;endSize=12;" edge="1" parent="1">
          <mxGeometry width="50" height="50" relative="1" as="geometry">
            <mxPoint x="414" y="139.57999999999998" as="sourcePoint" />
            <mxPoint x="524" y="140" as="targetPoint" />
          </mxGeometry>
        </mxCell>
        <mxCell id="m0ZOB3Q7q5n8RTu2BzLh-9" value="&lt;div align=&quot;center&quot;&gt;M,P,G调度&lt;/div&gt;&lt;div align=&quot;left&quot;&gt;M：执行go程的机器，cpu线程，实际执行go程，当M唤醒后，必须持有P，再开始执行P上或者抢占过来的go程&lt;/div&gt;&lt;div align=&quot;left&quot;&gt;P：执行所需要的资源，比如内存，全局的P队列，这个作用一方面划分全局的资源到各自的P上，减少竞争，更重要的用来做抢占式调度。&lt;/div&gt;&lt;div align=&quot;left&quot;&gt;G：执行对象，go程。&lt;br&gt;&lt;/div&gt;" style="shape=note;size=20;whiteSpace=wrap;html=1;align=center;" vertex="1" parent="1">
          <mxGeometry x="30" width="790" height="100" as="geometry" />
        </mxCell>
        <mxCell id="m0ZOB3Q7q5n8RTu2BzLh-15" value="&lt;div&gt;go程&lt;/div&gt;&lt;div&gt;_Grunnable&lt;/div&gt;" style="strokeWidth=2;html=1;shape=mxgraph.flowchart.start_2;whiteSpace=wrap;" vertex="1" parent="1">
          <mxGeometry x="290" y="117.5" width="90" height="45" as="geometry" />
        </mxCell>
        <mxCell id="m0ZOB3Q7q5n8RTu2BzLh-56" value="" style="edgeStyle=orthogonalEdgeStyle;rounded=0;orthogonalLoop=1;jettySize=auto;html=1;" edge="1" parent="1" source="m0ZOB3Q7q5n8RTu2BzLh-55" target="m0ZOB3Q7q5n8RTu2BzLh-15">
          <mxGeometry relative="1" as="geometry" />
        </mxCell>
        <mxCell id="m0ZOB3Q7q5n8RTu2BzLh-55" value="&lt;div&gt;runq&lt;/div&gt;&lt;div&gt;全局go队列&lt;br&gt;&lt;/div&gt;" style="text;html=1;align=center;verticalAlign=middle;resizable=0;points=[];autosize=1;strokeColor=none;fillColor=none;" vertex="1" parent="1">
          <mxGeometry x="63" y="125" width="80" height="30" as="geometry" />
        </mxCell>
        <mxCell id="m0ZOB3Q7q5n8RTu2BzLh-78" value="" style="edgeStyle=orthogonalEdgeStyle;rounded=0;orthogonalLoop=1;jettySize=auto;html=1;" edge="1" parent="1" source="m0ZOB3Q7q5n8RTu2BzLh-75" target="m0ZOB3Q7q5n8RTu2BzLh-77">
          <mxGeometry relative="1" as="geometry" />
        </mxCell>
        <mxCell id="m0ZOB3Q7q5n8RTu2BzLh-75" value="&lt;div&gt;pending go&lt;/div&gt;&lt;div&gt;netpool里的go程&lt;/div&gt;&lt;div&gt;&lt;br&gt;&lt;/div&gt;" style="text;html=1;align=center;verticalAlign=middle;resizable=0;points=[];autosize=1;strokeColor=none;fillColor=none;" vertex="1" parent="1">
          <mxGeometry x="55" y="235.5" width="110" height="50" as="geometry" />
        </mxCell>
        <mxCell id="m0ZOB3Q7q5n8RTu2BzLh-77" value="&lt;div&gt;go程&lt;/div&gt;&lt;div&gt;_Gwaiting&lt;/div&gt;" style="strokeWidth=2;html=1;shape=mxgraph.flowchart.start_2;whiteSpace=wrap;" vertex="1" parent="1">
          <mxGeometry x="290" y="238" width="90" height="45" as="geometry" />
        </mxCell>
        <mxCell id="m0ZOB3Q7q5n8RTu2BzLh-82" value="&lt;div&gt;go程&lt;/div&gt;&lt;div&gt;_Grunnable&lt;/div&gt;" style="strokeWidth=2;html=1;shape=mxgraph.flowchart.start_2;whiteSpace=wrap;" vertex="1" parent="1">
          <mxGeometry x="540" y="117.5" width="90" height="45" as="geometry" />
        </mxCell>
        <mxCell id="m0ZOB3Q7q5n8RTu2BzLh-90" value="" style="edgeStyle=orthogonalEdgeStyle;rounded=0;orthogonalLoop=1;jettySize=auto;html=1;endSize=12;" edge="1" parent="1" source="m0ZOB3Q7q5n8RTu2BzLh-83" target="m0ZOB3Q7q5n8RTu2BzLh-84">
          <mxGeometry relative="1" as="geometry" />
        </mxCell>
        <mxCell id="m0ZOB3Q7q5n8RTu2BzLh-83" value="&lt;div&gt;Syscall go&lt;/div&gt;&lt;div&gt;正在做系统调用的go程&lt;/div&gt;&lt;div&gt;包括C函数调用和系统函数调用&lt;/div&gt;" style="text;html=1;align=center;verticalAlign=middle;resizable=0;points=[];autosize=1;strokeColor=none;fillColor=none;" vertex="1" parent="1">
          <mxGeometry x="5" y="305.5" width="180" height="50" as="geometry" />
        </mxCell>
        <mxCell id="m0ZOB3Q7q5n8RTu2BzLh-84" value="&lt;div&gt;go程&lt;/div&gt;&lt;div&gt;_Gsyscall&lt;/div&gt;" style="strokeWidth=2;html=1;shape=mxgraph.flowchart.start_2;whiteSpace=wrap;" vertex="1" parent="1">
          <mxGeometry x="290" y="308" width="90" height="45" as="geometry" />
        </mxCell>
        <mxCell id="m0ZOB3Q7q5n8RTu2BzLh-86" value="" style="endArrow=none;dashed=1;html=1;dashPattern=1 3;strokeWidth=2;rounded=0;endSize=12;" edge="1" parent="1">
          <mxGeometry width="50" height="50" relative="1" as="geometry">
            <mxPoint x="416" y="259.58000000000004" as="sourcePoint" />
            <mxPoint x="525.9999999999998" y="259.9999999999999" as="targetPoint" />
          </mxGeometry>
        </mxCell>
        <mxCell id="m0ZOB3Q7q5n8RTu2BzLh-87" value="&lt;div&gt;go程&lt;/div&gt;&lt;div&gt;_Gwaiting&lt;/div&gt;" style="strokeWidth=2;html=1;shape=mxgraph.flowchart.start_2;whiteSpace=wrap;" vertex="1" parent="1">
          <mxGeometry x="540" y="238" width="90" height="45" as="geometry" />
        </mxCell>
        <mxCell id="m0ZOB3Q7q5n8RTu2BzLh-88" value="&lt;div&gt;go程&lt;/div&gt;&lt;div&gt;_Gsyscall&lt;/div&gt;" style="strokeWidth=2;html=1;shape=mxgraph.flowchart.start_2;whiteSpace=wrap;" vertex="1" parent="1">
          <mxGeometry x="550" y="310.5" width="90" height="45" as="geometry" />
        </mxCell>
        <mxCell id="m0ZOB3Q7q5n8RTu2BzLh-89" value="" style="endArrow=none;dashed=1;html=1;dashPattern=1 3;strokeWidth=2;rounded=0;endSize=12;" edge="1" parent="1">
          <mxGeometry width="50" height="50" relative="1" as="geometry">
            <mxPoint x="416" y="331.58000000000004" as="sourcePoint" />
            <mxPoint x="526" y="331.9999999999998" as="targetPoint" />
          </mxGeometry>
        </mxCell>
        <mxCell id="m0ZOB3Q7q5n8RTu2BzLh-91" value="&lt;div&gt;runq&lt;/div&gt;&lt;div&gt;各自P上的队列&lt;/div&gt;" style="text;html=1;align=center;verticalAlign=middle;resizable=0;points=[];autosize=1;strokeColor=none;fillColor=none;" vertex="1" parent="1">
          <mxGeometry x="43" y="176" width="100" height="30" as="geometry" />
        </mxCell>
      </root>
    </mxGraphModel>
  </diagram>
</mxfile>
